<?xml version="1.0" encoding="iso-8859-1"?>
<!-- Uploaded to: SVG Repo, www.svgrepo.com, Generator: SVG Repo Mixer Tools -->
<svg height="800px" width="800px" version="1.1" id="Layer_1" xmlns="http://www.w3.org/2000/svg" xmlns:xlink="http://www.w3.org/1999/xlink" 
	 viewBox="0 0 512 512" xml:space="preserve">
<path style="fill:#79695A;" d="M288.291,303.038l-66.783,0.467c-9.217,0-16.696,7.473-16.696,16.696v175.103
	c0,9.223,7.479,16.696,16.696,16.696h66.783c9.217,0,16.584-7.473,16.584-16.696v-175.57
	C304.875,310.511,297.508,303.038,288.291,303.038z"/>
<path style="fill:#6C5B52;" d="M288.291,303.038l-32.663,0.228V512h32.663c9.217,0,16.584-7.473,16.584-16.696v-175.57
	C304.875,310.511,297.508,303.038,288.291,303.038z"/>
<path style="fill:#8FD8F0;" d="M436.386,267.576l-125.44-51.757l17.81-130.783C335.099,40.96,301.374,0.557,255.628,0h-0.892
	c-45.41,0-80.139,40.292-73.794,84.925l18.03,131.673L75.761,267.464c-41.739,16.807-59.66,66.783-36.619,106.63
	c22.816,39.624,75.242,48.974,110.19,21.593L254.96,315.77l0.669,0.445l106.742,79.249c35.282,27.715,87.484,18.365,110.635-21.593
	C495.712,334.47,478.125,284.271,436.386,267.576z"/>
<path style="fill:#515BE0;" d="M473.005,373.871c-23.152,39.958-75.353,49.308-110.635,21.593l-106.742-79.249V0
	c45.746,0.557,79.471,40.96,73.128,85.037l-17.81,130.783l125.44,51.757C478.125,284.271,495.712,334.47,473.005,373.871z"/>
<path style="fill:#DBE1F1;" d="M255.628,311.652L255.628,311.652c-33.81,0-61.217-27.408-61.217-61.217l0,0
	c0-33.81,27.408-61.217,61.217-61.217l0,0c33.81,0,61.217,27.408,61.217,61.217l0,0
	C316.845,284.245,289.437,311.652,255.628,311.652z"/>
<path style="fill:#D0D5E5;" d="M316.845,250.435c0-33.81-27.408-61.217-61.217-61.217v122.435
	C289.437,311.652,316.845,284.243,316.845,250.435z"/>
<path style="fill:#79695A;" d="M255.628,278.261L255.628,278.261c-15.368,0-27.826-12.458-27.826-27.826l0,0
	c0-15.368,12.458-27.826,27.826-27.826l0,0c15.368,0,27.826,12.458,27.826,27.826l0,0
	C283.454,265.803,270.995,278.261,255.628,278.261z"/>
<path style="fill:#6C5B52;" d="M283.454,250.435c0-15.368-12.458-27.826-27.826-27.826v55.652
	C270.995,278.261,283.454,265.803,283.454,250.435z"/>
</svg>